<?xml version="1.0" encoding="UTF-8" standalone="no"?>
<!DOCTYPE svg PUBLIC "-//W3C//DTD SVG 1.1//EN" "http://www.w3.org/Graphics/SVG/1.1/DTD/svg11.dtd">
<svg width="100%" height="100%" viewBox="0 0 72 72" version="1.1" xmlns="http://www.w3.org/2000/svg" xmlns:xlink="http://www.w3.org/1999/xlink" xml:space="preserve" xmlns:serif="http://www.serif.com/" style="fill-rule:evenodd;clip-rule:evenodd;stroke-linejoin:round;stroke-miterlimit:2;">
    <g transform="matrix(1,0,0,1,-1052.67,-667.002)">
        <g transform="matrix(0.959465,-1.31828e-32,1.31828e-32,-0.959465,823.043,763.329)">
            <path id="path14" d="M239.33,95.036C239.33,97.996 241.79,100.397 244.825,100.397L308.201,100.397C311.237,100.397 313.697,97.996 313.697,95.036L313.697,30.919C313.697,27.958 311.237,25.558 308.201,25.558L244.825,25.558C241.79,25.558 239.33,27.958 239.33,30.919L239.33,95.036Z" style="fill:none;fill-rule:nonzero;"/>
        </g>
        <g transform="matrix(0.0630301,0,0,0.0630301,1055.07,683.433)">
            <path d="M594.79,308.2C594.79,471.96 462.94,604.72 300.29,604.72C137.64,604.72 5.8,472 5.8,308.2C5.8,144.4 137.65,11.69 300.29,11.69C462.93,11.69 594.79,144.44 594.79,308.2M917.86,308.2C917.86,462.36 851.93,587.32 770.61,587.32C689.29,587.32 623.36,462.32 623.36,308.2C623.36,154.08 689.29,29.08 770.61,29.08C851.93,29.08 917.86,154.08 917.86,308.2M1050,308.2C1050,446.32 1026.81,558.28 998.21,558.28C969.61,558.28 946.42,446.28 946.42,308.2C946.42,170.12 969.61,58.12 998.22,58.12C1026.83,58.12 1050,170.09 1050,308.2" style="fill:white;fill-rule:nonzero;"/>
        </g>
    </g>
</svg>
