<?xml version="1.0" encoding="UTF-8" standalone="no"?>
<!DOCTYPE svg PUBLIC "-//W3C//DTD SVG 1.1//EN" "http://www.w3.org/Graphics/SVG/1.1/DTD/svg11.dtd">
<svg width="100%" height="100%" viewBox="0 0 72 72" version="1.1" xmlns="http://www.w3.org/2000/svg" xmlns:xlink="http://www.w3.org/1999/xlink" xml:space="preserve" xmlns:serif="http://www.serif.com/" style="fill-rule:evenodd;clip-rule:evenodd;stroke-linejoin:round;stroke-miterlimit:2;">
    <g transform="matrix(1,0,0,1,-923.419,-667.002)">
        <g transform="matrix(0.959465,-1.31828e-32,1.31828e-32,-0.959465,693.791,763.329)">
            <path id="path14" d="M239.33,95.036C239.33,97.996 241.79,100.397 244.825,100.397L308.201,100.397C311.237,100.397 313.697,97.996 313.697,95.036L313.697,30.919C313.697,27.958 311.237,25.558 308.201,25.558L244.825,25.558C241.79,25.558 239.33,27.958 239.33,30.919L239.33,95.036Z" style="fill:none;fill-rule:nonzero;"/>
        </g>
        <g transform="matrix(0.264805,0,0,0.264805,926.24,676.026)">
            <path d="M221.95,51.29C222.1,53.46 222.1,55.63 222.1,57.82C222.1,124.55 171.3,201.51 78.41,201.51L78.41,201.47C50.97,201.51 24.1,193.65 1,178.83C4.99,179.31 9,179.55 13.02,179.56C35.76,179.58 57.85,171.95 75.74,157.9C54.13,157.49 35.18,143.4 28.56,122.83C36.13,124.29 43.93,123.99 51.36,121.96C27.8,117.2 10.85,96.5 10.85,72.46L10.85,71.82C17.87,75.73 25.73,77.9 33.77,78.14C11.58,63.31 4.74,33.79 18.14,10.71C43.78,42.26 81.61,61.44 122.22,63.47C118.15,45.93 123.71,27.55 136.83,15.22C157.17,-3.9 189.16,-2.92 208.28,17.41C219.59,15.18 230.43,11.03 240.35,5.15C236.58,16.84 228.69,26.77 218.15,33.08C228.16,31.9 237.94,29.22 247.15,25.13C240.37,35.29 231.83,44.14 221.95,51.29Z" style="fill:white;fill-rule:nonzero;"/>
        </g>
    </g>
</svg>
